<svg id="visual" viewBox="0 0 900 600" width="900" height="600" xmlns="http://www.w3.org/2000/svg" xmlns:xlink="http://www.w3.org/1999/xlink" version="1.1"><path d="M0 91L8.8 94C17.7 97 35.3 103 53 128C70.7 153 88.3 197 106 191C123.7 185 141.3 129 159 125C176.7 121 194.3 169 212 191C229.7 213 247.3 209 265 199C282.7 189 300.3 173 318 153C335.7 133 353.3 109 371 120C388.7 131 406.3 177 423.8 194C441.3 211 458.7 199 476.2 190C493.7 181 511.3 175 529 160C546.7 145 564.3 121 582 143C599.7 165 617.3 233 635 243C652.7 253 670.3 205 688 185C705.7 165 723.3 173 741 184C758.7 195 776.3 209 794 201C811.7 193 829.3 163 847 151C864.7 139 882.3 145 891.2 148L900 151L900 0L891.2 0C882.3 0 864.7 0 847 0C829.3 0 811.7 0 794 0C776.3 0 758.7 0 741 0C723.3 0 705.7 0 688 0C670.3 0 652.7 0 635 0C617.3 0 599.7 0 582 0C564.3 0 546.7 0 529 0C511.3 0 493.7 0 476.2 0C458.7 0 441.3 0 423.8 0C406.3 0 388.7 0 371 0C353.3 0 335.7 0 318 0C300.3 0 282.7 0 265 0C247.3 0 229.7 0 212 0C194.3 0 176.7 0 159 0C141.3 0 123.7 0 106 0C88.3 0 70.7 0 53 0C35.3 0 17.7 0 8.8 0L0 0Z" fill="#ab0bf6"></path><path d="M0 109L8.8 117C17.7 125 35.3 141 53 169C70.7 197 88.3 237 106 229C123.7 221 141.3 165 159 163C176.7 161 194.3 213 212 237C229.7 261 247.3 257 265 254C282.7 251 300.3 249 318 224C335.7 199 353.3 151 371 151C388.7 151 406.3 199 423.8 222C441.3 245 458.7 243 476.2 250C493.7 257 511.3 273 529 258C546.7 243 564.3 197 582 215C599.7 233 617.3 315 635 322C652.7 329 670.3 261 688 228C705.7 195 723.3 197 741 208C758.7 219 776.3 239 794 240C811.7 241 829.3 223 847 219C864.7 215 882.3 225 891.2 230L900 235L900 149L891.2 146C882.3 143 864.7 137 847 149C829.3 161 811.7 191 794 199C776.3 207 758.7 193 741 182C723.3 171 705.7 163 688 183C670.3 203 652.7 251 635 241C617.3 231 599.7 163 582 141C564.3 119 546.7 143 529 158C511.3 173 493.7 179 476.2 188C458.7 197 441.3 209 423.8 192C406.3 175 388.7 129 371 118C353.3 107 335.7 131 318 151C300.3 171 282.7 187 265 197C247.3 207 229.7 211 212 189C194.3 167 176.7 119 159 123C141.3 127 123.7 183 106 189C88.3 195 70.7 151 53 126C35.3 101 17.7 95 8.8 92L0 89Z" fill="#5b3fd9"></path><path d="M0 235L8.8 244C17.7 253 35.3 271 53 289C70.7 307 88.3 325 106 300C123.7 275 141.3 207 159 218C176.7 229 194.3 319 212 360C229.7 401 247.3 393 265 386C282.7 379 300.3 373 318 348C335.7 323 353.3 279 371 292C388.7 305 406.3 375 423.8 406C441.3 437 458.7 429 476.2 415C493.7 401 511.3 381 529 345C546.7 309 564.3 257 582 268C599.7 279 617.3 353 635 385C652.7 417 670.3 407 688 393C705.7 379 723.3 361 741 363C758.7 365 776.3 387 794 388C811.7 389 829.3 369 847 358C864.7 347 882.3 345 891.2 344L900 343L900 233L891.2 228C882.3 223 864.7 213 847 217C829.3 221 811.7 239 794 238C776.3 237 758.7 217 741 206C723.3 195 705.7 193 688 226C670.3 259 652.7 327 635 320C617.3 313 599.7 231 582 213C564.3 195 546.7 241 529 256C511.3 271 493.7 255 476.2 248C458.7 241 441.3 243 423.8 220C406.3 197 388.7 149 371 149C353.3 149 335.7 197 318 222C300.3 247 282.7 249 265 252C247.3 255 229.7 259 212 235C194.3 211 176.7 159 159 161C141.3 163 123.7 219 106 227C88.3 235 70.7 195 53 167C35.3 139 17.7 123 8.8 115L0 107Z" fill="#0043ae"></path><path d="M0 445L8.8 460C17.7 475 35.3 505 53 509C70.7 513 88.3 491 106 481C123.7 471 141.3 473 159 471C176.7 469 194.3 463 212 460C229.7 457 247.3 457 265 470C282.7 483 300.3 509 318 519C335.7 529 353.3 523 371 521C388.7 519 406.3 521 423.8 530C441.3 539 458.7 555 476.2 560C493.7 565 511.3 559 529 541C546.7 523 564.3 493 582 487C599.7 481 617.3 499 635 516C652.7 533 670.3 549 688 537C705.7 525 723.3 485 741 472C758.7 459 776.3 473 794 494C811.7 515 829.3 543 847 555C864.7 567 882.3 563 891.2 561L900 559L900 341L891.2 342C882.3 343 864.7 345 847 356C829.3 367 811.7 387 794 386C776.3 385 758.7 363 741 361C723.3 359 705.7 377 688 391C670.3 405 652.7 415 635 383C617.3 351 599.7 277 582 266C564.3 255 546.7 307 529 343C511.3 379 493.7 399 476.2 413C458.7 427 441.3 435 423.8 404C406.3 373 388.7 303 371 290C353.3 277 335.7 321 318 346C300.3 371 282.7 377 265 384C247.3 391 229.7 399 212 358C194.3 317 176.7 227 159 216C141.3 205 123.7 273 106 298C88.3 323 70.7 305 53 287C35.3 269 17.7 251 8.8 242L0 233Z" fill="#00397a"></path><path d="M0 601L8.8 601C17.7 601 35.3 601 53 601C70.7 601 88.3 601 106 601C123.7 601 141.3 601 159 601C176.7 601 194.3 601 212 601C229.7 601 247.3 601 265 601C282.7 601 300.3 601 318 601C335.7 601 353.3 601 371 601C388.7 601 406.3 601 423.8 601C441.3 601 458.7 601 476.2 601C493.7 601 511.3 601 529 601C546.7 601 564.3 601 582 601C599.7 601 617.3 601 635 601C652.7 601 670.3 601 688 601C705.7 601 723.3 601 741 601C758.7 601 776.3 601 794 601C811.7 601 829.3 601 847 601C864.7 601 882.3 601 891.2 601L900 601L900 557L891.2 559C882.3 561 864.7 565 847 553C829.3 541 811.7 513 794 492C776.3 471 758.7 457 741 470C723.3 483 705.7 523 688 535C670.3 547 652.7 531 635 514C617.3 497 599.7 479 582 485C564.3 491 546.7 521 529 539C511.3 557 493.7 563 476.2 558C458.7 553 441.3 537 423.8 528C406.3 519 388.7 517 371 519C353.3 521 335.7 527 318 517C300.3 507 282.7 481 265 468C247.3 455 229.7 455 212 458C194.3 461 176.7 467 159 469C141.3 471 123.7 469 106 479C88.3 489 70.7 511 53 507C35.3 503 17.7 473 8.8 458L0 443Z" fill="#022943"></path></svg>