<svg id="visual" viewBox="0 0 960 540" width="960" height="540" xmlns="http://www.w3.org/2000/svg" xmlns:xlink="http://www.w3.org/1999/xlink" version="1.1"><rect x="0" y="0" width="960" height="540" fill="#ffffff"></rect><path d="M533 540L531.2 530C529.3 520 525.7 500 521.5 480C517.3 460 512.7 440 508.2 420C503.7 400 499.3 380 511 360C522.7 340 550.3 320 556.5 300C562.7 280 547.3 260 542.8 240C538.3 220 544.7 200 547.2 180C549.7 160 548.3 140 544.8 120C541.3 100 535.7 80 536 60C536.3 40 542.7 20 545.8 10L549 0L960 0L960 10C960 20 960 40 960 60C960 80 960 100 960 120C960 140 960 160 960 180C960 200 960 220 960 240C960 260 960 280 960 300C960 320 960 340 960 360C960 380 960 400 960 420C960 440 960 460 960 480C960 500 960 520 960 530L960 540Z" fill="#f60b0b"></path><path d="M567 540L568.7 530C570.3 520 573.7 500 578.8 480C584 460 591 440 602.3 420C613.7 400 629.3 380 639.8 360C650.3 340 655.7 320 653.3 300C651 280 641 260 631.5 240C622 220 613 200 613.3 180C613.7 160 623.3 140 621.8 120C620.3 100 607.7 80 609.7 60C611.7 40 628.3 20 636.7 10L645 0L960 0L960 10C960 20 960 40 960 60C960 80 960 100 960 120C960 140 960 160 960 180C960 200 960 220 960 240C960 260 960 280 960 300C960 320 960 340 960 360C960 380 960 400 960 420C960 440 960 460 960 480C960 500 960 520 960 530L960 540Z" fill="#ff004c"></path><path d="M724 540L725.8 530C727.7 520 731.3 500 722.3 480C713.3 460 691.7 440 690.7 420C689.7 400 709.3 380 707 360C704.7 340 680.3 320 670.7 300C661 280 666 260 669.3 240C672.7 220 674.3 200 674.8 180C675.3 160 674.7 140 678.7 120C682.7 100 691.3 80 700.5 60C709.7 40 719.3 20 724.2 10L729 0L960 0L960 10C960 20 960 40 960 60C960 80 960 100 960 120C960 140 960 160 960 180C960 200 960 220 960 240C960 260 960 280 960 300C960 320 960 340 960 360C960 380 960 400 960 420C960 440 960 460 960 480C960 500 960 520 960 530L960 540Z" fill="#ff007f"></path><path d="M801 540L801.5 530C802 520 803 500 802.5 480C802 460 800 440 800.2 420C800.3 400 802.7 380 799.2 360C795.7 340 786.3 320 784.2 300C782 280 787 260 789.5 240C792 220 792 200 789.7 180C787.3 160 782.7 140 786 120C789.3 100 800.7 80 807 60C813.3 40 814.7 20 815.3 10L816 0L960 0L960 10C960 20 960 40 960 60C960 80 960 100 960 120C960 140 960 160 960 180C960 200 960 220 960 240C960 260 960 280 960 300C960 320 960 340 960 360C960 380 960 400 960 420C960 440 960 460 960 480C960 500 960 520 960 530L960 540Z" fill="#ed00b5"></path><path d="M829 540L832.3 530C835.7 520 842.3 500 846 480C849.7 460 850.3 440 855.8 420C861.3 400 871.7 380 873.8 360C876 340 870 320 869.3 300C868.7 280 873.3 260 874.3 240C875.3 220 872.7 200 869.5 180C866.3 160 862.7 140 862.7 120C862.7 100 866.3 80 866.3 60C866.3 40 862.7 20 860.8 10L859 0L960 0L960 10C960 20 960 40 960 60C960 80 960 100 960 120C960 140 960 160 960 180C960 200 960 220 960 240C960 260 960 280 960 300C960 320 960 340 960 360C960 380 960 400 960 420C960 440 960 460 960 480C960 500 960 520 960 530L960 540Z" fill="#ab0bf6"></path></svg>